<mxfile host="65bd71144e">
    <diagram name="Fluxo Pedido Site" id="fluxo-pedido-site">
        <mxGraphModel dx="764" dy="681" grid="1" gridSize="10" guides="1" tooltips="1" connect="1" arrows="1" fold="1" page="1" pageScale="1" pageWidth="1169" pageHeight="827" math="0" shadow="0">
            <root>
                <mxCell id="0"/>
                <mxCell id="1" parent="0"/>
                <mxCell id="2" value="Cliente faz cadastro" style="rounded=1;whiteSpace=wrap;html=1;fillColor=#e1f5fe;strokeColor=#000000;fontColor=#000000;" parent="1" vertex="1">
                    <mxGeometry x="480" y="40" width="120" height="60" as="geometry"/>
                </mxCell>
                <mxCell id="3" value="Cria automaticamente:&lt;br&gt;- Cliente&lt;br&gt;- Contato&lt;br&gt;- Projeto&lt;br&gt;- 3 Tasks" style="rounded=1;whiteSpace=wrap;html=1;fillColor=#f3e5f5;strokeColor=#000000;fontColor=#000000;" parent="1" vertex="1">
                    <mxGeometry x="440" y="140" width="200" height="100" as="geometry"/>
                </mxCell>
                <mxCell id="4" value="Chama endpoint assíncrono&lt;br&gt;com dados do site" style="rounded=1;whiteSpace=wrap;html=1;fillColor=#fff3e0;strokeColor=#000000;fontColor=#000000;" parent="1" vertex="1">
                    <mxGeometry x="440" y="280" width="200" height="60" as="geometry"/>
                </mxCell>
                <mxCell id="5" value="Endpoint coloca dados&lt;br&gt;na fila para processamento" style="rounded=1;whiteSpace=wrap;html=1;fillColor=#fff3e0;strokeColor=#000000;fontColor=#000000;" parent="1" vertex="1">
                    <mxGeometry x="440" y="380" width="200" height="60" as="geometry"/>
                </mxCell>
                <mxCell id="6" value="API de IA processa&lt;br&gt;e cria o site" style="rounded=1;whiteSpace=wrap;html=1;fillColor=#e8f5e8;strokeColor=#000000;fontColor=#000000;" parent="1" vertex="1">
                    <mxGeometry x="440" y="480" width="200" height="60" as="geometry"/>
                </mxCell>
                <mxCell id="7" value="Atualiza status da task&lt;br&gt;para 'Em desenvolvimento'" style="rounded=1;whiteSpace=wrap;html=1;fillColor=#e8f5e8;strokeColor=#000000;fontColor=#000000;" parent="1" vertex="1">
                    <mxGeometry x="440" y="580" width="200" height="60" as="geometry"/>
                </mxCell>
                <mxCell id="8" value="Funcionário valida&lt;br&gt;e faz correções" style="rounded=1;whiteSpace=wrap;html=1;fillColor=#fff9c4;strokeColor=#000000;fontColor=#000000;" parent="1" vertex="1">
                    <mxGeometry x="440" y="680" width="200" height="60" as="geometry"/>
                </mxCell>
                <mxCell id="9" value="Cliente valida o site" style="rounded=1;whiteSpace=wrap;html=1;fillColor=#fff9c4;strokeColor=#000000;fontColor=#000000;" parent="1" vertex="1">
                    <mxGeometry x="440" y="780" width="200" height="60" as="geometry"/>
                </mxCell>
                <mxCell id="10" value="Cliente aprovou?" style="rhombus;whiteSpace=wrap;html=1;fillColor=#ffebee;strokeColor=#000000;fontColor=#000000;" parent="1" vertex="1">
                    <mxGeometry x="480" y="880" width="120" height="80" as="geometry"/>
                </mxCell>
                <mxCell id="11" value="Volta para correções&lt;br&gt;do funcionário" style="rounded=1;whiteSpace=wrap;html=1;fillColor=#ffebee;strokeColor=#000000;fontColor=#000000;" parent="1" vertex="1">
                    <mxGeometry x="200" y="680" width="160" height="60" as="geometry"/>
                </mxCell>
                <mxCell id="12" value="Executa Task de Fatura" style="rounded=1;whiteSpace=wrap;html=1;fillColor=#f3e5f5;strokeColor=#000000;fontColor=#000000;" parent="1" vertex="1">
                    <mxGeometry x="720" y="880" width="160" height="60" as="geometry"/>
                </mxCell>
                <mxCell id="13" value="Task Fatura processada&lt;br&gt;e transformada em fatura real" style="rounded=1;whiteSpace=wrap;html=1;fillColor=#e8f5e8;strokeColor=#000000;fontColor=#000000;" parent="1" vertex="1">
                    <mxGeometry x="720" y="980" width="200" height="60" as="geometry"/>
                </mxCell>
                <mxCell id="14" value="Task 2 - Configurações&lt;br&gt;1. Criar domínio&lt;br&gt;2. Gerar HTTPS&lt;br&gt;3. Gerar email&lt;br&gt;4. Entrar em contato" style="rounded=1;whiteSpace=wrap;html=1;fillColor=#f3e5f5;strokeColor=#000000;fontColor=#000000;" parent="1" vertex="1">
                    <mxGeometry x="80" y="140" width="200" height="100" as="geometry"/>
                </mxCell>
                <mxCell id="15" value="Processa itens da Task 2" style="rounded=1;whiteSpace=wrap;html=1;fillColor=#e8f5e8;strokeColor=#000000;fontColor=#000000;" parent="1" vertex="1">
                    <mxGeometry x="80" y="280" width="200" height="60" as="geometry"/>
                </mxCell>
                <mxCell id="16" value="Task 3 - Fatura&lt;br&gt;Aguardando aprovação&lt;br&gt;do cliente" style="rounded=1;whiteSpace=wrap;html=1;fillColor=#f3e5f5;strokeColor=#000000;fontColor=#000000;" parent="1" vertex="1">
                    <mxGeometry x="800" y="140" width="200" height="100" as="geometry"/>
                </mxCell>
                <mxCell id="17" value="Após aprovação:&lt;br&gt;Gera fatura real" style="rounded=1;whiteSpace=wrap;html=1;fillColor=#e8f5e8;strokeColor=#000000;fontColor=#000000;" parent="1" vertex="1">
                    <mxGeometry x="800" y="280" width="200" height="60" as="geometry"/>
                </mxCell>
                <mxCell id="18" value="" style="endArrow=classic;html=1;rounded=0;strokeColor=#000000;fontColor=#000000;" parent="1" source="2" target="3" edge="1">
                    <mxGeometry width="50" height="50" relative="1" as="geometry">
                        <mxPoint x="540" y="110" as="sourcePoint"/>
                        <mxPoint x="540" y="140" as="targetPoint"/>
                    </mxGeometry>
                </mxCell>
                <mxCell id="19" value="" style="endArrow=classic;html=1;rounded=0;strokeColor=#000000;fontColor=#000000;" parent="1" source="3" target="4" edge="1">
                    <mxGeometry width="50" height="50" relative="1" as="geometry">
                        <mxPoint x="540" y="250" as="sourcePoint"/>
                        <mxPoint x="540" y="280" as="targetPoint"/>
                    </mxGeometry>
                </mxCell>
                <mxCell id="20" value="" style="endArrow=classic;html=1;rounded=0;strokeColor=#000000;fontColor=#000000;" parent="1" source="4" target="5" edge="1">
                    <mxGeometry width="50" height="50" relative="1" as="geometry">
                        <mxPoint x="540" y="350" as="sourcePoint"/>
                        <mxPoint x="540" y="380" as="targetPoint"/>
                    </mxGeometry>
                </mxCell>
                <mxCell id="21" value="" style="endArrow=classic;html=1;rounded=0;strokeColor=#000000;fontColor=#000000;" parent="1" source="5" target="6" edge="1">
                    <mxGeometry width="50" height="50" relative="1" as="geometry">
                        <mxPoint x="540" y="450" as="sourcePoint"/>
                        <mxPoint x="540" y="480" as="targetPoint"/>
                    </mxGeometry>
                </mxCell>
                <mxCell id="22" value="" style="endArrow=classic;html=1;rounded=0;strokeColor=#000000;fontColor=#000000;" parent="1" source="6" target="7" edge="1">
                    <mxGeometry width="50" height="50" relative="1" as="geometry">
                        <mxPoint x="540" y="550" as="sourcePoint"/>
                        <mxPoint x="540" y="580" as="targetPoint"/>
                    </mxGeometry>
                </mxCell>
                <mxCell id="23" value="" style="endArrow=classic;html=1;rounded=0;strokeColor=#000000;fontColor=#000000;" parent="1" source="7" target="8" edge="1">
                    <mxGeometry width="50" height="50" relative="1" as="geometry">
                        <mxPoint x="540" y="650" as="sourcePoint"/>
                        <mxPoint x="540" y="680" as="targetPoint"/>
                    </mxGeometry>
                </mxCell>
                <mxCell id="24" value="" style="endArrow=classic;html=1;rounded=0;strokeColor=#000000;fontColor=#000000;" parent="1" source="8" target="9" edge="1">
                    <mxGeometry width="50" height="50" relative="1" as="geometry">
                        <mxPoint x="540" y="750" as="sourcePoint"/>
                        <mxPoint x="540" y="780" as="targetPoint"/>
                    </mxGeometry>
                </mxCell>
                <mxCell id="25" value="" style="endArrow=classic;html=1;rounded=0;strokeColor=#000000;fontColor=#000000;" parent="1" source="9" target="10" edge="1">
                    <mxGeometry width="50" height="50" relative="1" as="geometry">
                        <mxPoint x="540" y="850" as="sourcePoint"/>
                        <mxPoint x="540" y="880" as="targetPoint"/>
                    </mxGeometry>
                </mxCell>
                <mxCell id="26" value="Não" style="endArrow=classic;html=1;rounded=0;strokeColor=#000000;fontColor=#000000;" parent="1" source="10" target="11" edge="1">
                    <mxGeometry width="50" height="50" relative="1" as="geometry">
                        <mxPoint x="480" y="920" as="sourcePoint"/>
                        <mxPoint x="360" y="710" as="targetPoint"/>
                    </mxGeometry>
                </mxCell>
                <mxCell id="27" value="Sim" style="endArrow=classic;html=1;rounded=0;strokeColor=#000000;fontColor=#000000;" parent="1" source="10" target="12" edge="1">
                    <mxGeometry width="50" height="50" relative="1" as="geometry">
                        <mxPoint x="600" y="920" as="sourcePoint"/>
                        <mxPoint x="720" y="880" as="targetPoint"/>
                    </mxGeometry>
                </mxCell>
                <mxCell id="28" value="" style="endArrow=classic;html=1;rounded=0;strokeColor=#000000;fontColor=#000000;" parent="1" source="12" target="13" edge="1">
                    <mxGeometry width="50" height="50" relative="1" as="geometry">
                        <mxPoint x="800" y="950" as="sourcePoint"/>
                        <mxPoint x="820" y="980" as="targetPoint"/>
                    </mxGeometry>
                </mxCell>
                <mxCell id="29" value="" style="endArrow=classic;html=1;rounded=0;strokeColor=#000000;fontColor=#000000;" parent="1" source="3" target="14" edge="1">
                    <mxGeometry width="50" height="50" relative="1" as="geometry">
                        <mxPoint x="440" y="190" as="sourcePoint"/>
                        <mxPoint x="280" y="190" as="targetPoint"/>
                    </mxGeometry>
                </mxCell>
                <mxCell id="30" value="" style="endArrow=classic;html=1;rounded=0;strokeColor=#000000;fontColor=#000000;" parent="1" source="14" target="15" edge="1">
                    <mxGeometry width="50" height="50" relative="1" as="geometry">
                        <mxPoint x="180" y="250" as="sourcePoint"/>
                        <mxPoint x="180" y="280" as="targetPoint"/>
                    </mxGeometry>
                </mxCell>
                <mxCell id="31" value="" style="endArrow=classic;html=1;rounded=0;strokeColor=#000000;fontColor=#000000;" parent="1" source="3" target="16" edge="1">
                    <mxGeometry width="50" height="50" relative="1" as="geometry">
                        <mxPoint x="640" y="190" as="sourcePoint"/>
                        <mxPoint x="800" y="190" as="targetPoint"/>
                    </mxGeometry>
                </mxCell>
                <mxCell id="32" value="" style="endArrow=classic;html=1;rounded=0;strokeColor=#000000;fontColor=#000000;" parent="1" source="16" target="17" edge="1">
                    <mxGeometry width="50" height="50" relative="1" as="geometry">
                        <mxPoint x="900" y="250" as="sourcePoint"/>
                        <mxPoint x="900" y="280" as="targetPoint"/>
                    </mxGeometry>
                </mxCell>
                <mxCell id="33" value="" style="endArrow=classic;html=1;rounded=0;strokeColor=#000000;fontColor=#000000;" parent="1" source="11" target="8" edge="1">
                    <mxGeometry width="50" height="50" relative="1" as="geometry">
                        <mxPoint x="360" y="710" as="sourcePoint"/>
                        <mxPoint x="440" y="710" as="targetPoint"/>
                    </mxGeometry>
                </mxCell>
            </root>
        </mxGraphModel>
    </diagram>
</mxfile>